<svg xmlns="http://www.w3.org/2000/svg" xmlns:xlink="http://www.w3.org/1999/xlink" width="500" zoomAndPan="magnify" viewBox="0 0 375 374.999991" height="500" preserveAspectRatio="xMidYMid meet" version="1.0"><defs><clipPath id="8ff8e09e95"><path d="M 54.507812 67.082031 L 320.757812 67.082031 L 320.757812 307.832031 L 54.507812 307.832031 Z M 54.507812 67.082031 " clip-rule="nonzero"/></clipPath></defs><g clip-path="url(#8ff8e09e95)"><path fill="#000000" d="M 54.734375 221.410156 C 54.734375 206.902344 63.386719 209.679688 63.386719 198.878906 C 63.386719 186.222656 56.585938 189 56.585938 178.199219 C 56.585938 172.640625 65.859375 167.703125 76.984375 167.703125 C 80.386719 186.839844 84.402344 192.394531 96.457031 198.261719 L 121.183594 232.210938 C 93.367188 221.410156 85.640625 221.410156 54.734375 221.410156 Z M 81.929688 280.363281 C 81.929688 272.644531 87.496094 267.398438 93.675781 267.398438 C 106.964844 267.398438 124.890625 263.078125 141.273438 253.816406 L 145.601562 269.25 L 154.253906 275.734375 C 124.273438 287.769531 126.128906 307.832031 111.910156 307.832031 C 99.859375 307.832031 108.511719 286.226562 81.929688 280.363281 Z M 104.183594 193.628906 L 114.382812 178.816406 L 107.273438 121.097656 C 107.273438 93.316406 153.636719 67.082031 187.632812 67.082031 C 221.632812 67.082031 267.992188 93.316406 267.992188 121.097656 L 260.882812 178.816406 L 271.082031 193.628906 L 244.195312 230.667969 L 227.195312 233.753906 L 224.722656 247.027344 L 201.542969 259.992188 L 173.726562 259.992188 L 150.546875 247.027344 L 148.074219 233.753906 L 131.074219 230.667969 Z M 128.910156 184.0625 C 128.910156 201.347656 132.929688 210.914062 140.347656 210.914062 C 157.652344 210.914062 177.125 202.582031 177.125 185.914062 C 177.125 176.347656 149.617188 168.9375 145.289062 168.9375 C 133.855469 168.9375 128.910156 173.875 128.910156 184.0625 Z M 150.546875 252.582031 L 159.816406 257.832031 L 159.816406 268.324219 L 153.636719 263.695312 Z M 162.90625 269.867188 L 162.90625 259.683594 L 172.179688 264.3125 L 172.179688 274.804688 Z M 173.726562 229.742188 L 179.90625 234.371094 L 187.632812 229.742188 L 195.359375 234.371094 L 201.542969 229.742188 L 187.632812 205.050781 Z M 175.269531 275.425781 L 175.269531 264.621094 L 186.089844 264.621094 L 186.089844 275.425781 Z M 189.179688 275.425781 L 189.179688 264.621094 L 199.996094 264.621094 L 199.996094 275.425781 Z M 198.140625 185.914062 C 198.140625 202.582031 217.613281 210.914062 234.921875 210.914062 C 242.339844 210.914062 246.359375 201.347656 246.359375 184.0625 C 246.359375 173.875 241.414062 168.9375 229.976562 168.9375 C 225.648438 168.9375 198.140625 176.347656 198.140625 185.914062 Z M 203.085938 274.804688 L 203.085938 264.3125 L 212.359375 259.683594 L 212.359375 269.867188 Z M 215.449219 268.324219 L 215.449219 257.832031 L 224.722656 252.582031 L 221.632812 263.695312 Z M 221.011719 275.734375 L 229.667969 269.25 L 233.996094 253.816406 C 250.375 263.078125 268.300781 267.398438 281.589844 267.398438 C 287.773438 267.398438 293.335938 272.644531 293.335938 280.363281 C 266.757812 286.226562 275.410156 307.832031 263.355469 307.832031 C 249.140625 307.832031 250.992188 287.769531 221.011719 275.734375 Z M 254.085938 232.210938 L 278.808594 198.261719 C 290.863281 192.394531 294.882812 186.839844 298.28125 167.703125 C 309.40625 167.703125 318.679688 172.640625 318.679688 178.199219 C 318.679688 189 311.878906 186.222656 311.878906 198.878906 C 311.878906 209.679688 320.535156 206.902344 320.535156 221.410156 C 289.628906 221.410156 281.902344 221.410156 254.085938 232.210938 Z M 254.085938 232.210938 " fill-opacity="1" fill-rule="nonzero"/></g></svg>